<?xml version="1.0" encoding="UTF-8" standalone="no"?>
<svg viewBox="0 0 42 52">
	<style>
		#bottom-chevron { fill:#5e6a71; }
		#main-badge { fill:#981e32; }
		#cougar-head { fill:#ffffff; }
	</style>
	<path id="bottom-chevron" d="m 28.7,44.099886 -7.6,5.400012 -7.6,-5.400012 c -5.3999997,-3.7 -10,-6.9 -12.4,-11.7 2,9 10.8,12.400002 20,19.600016 9.2,-7.200014 18,-10.600016 20,-19.600016 -2.4,4.8 -7.1,8 -12.4,11.7 z" />
	<path id="main-badge" d="M 0,-1.0855588e-4 V 0.89989097 C 0.6,1.099891 0.8,1.2998905 0.8,2.0998905 V 23.999886 c 0,12.1 9.8,15.3 20.2,23.500008 C 31.5,39.299886 41.3,36.099886 41.3,23.999886 V 1.9998905 c 0.1,-0.7 0.3,-0.8 0.8,-0.99999953 V -1.0855588e-4 Z" />
	<g id="cougar-head" transform="translate(-54.4, 0)">
		<path d="m 79.6,35.5 c 0,0 1.7,-0.7 2.6,-3.5 0.8,1.7 0.6,3.4 0.6,3.4 -0.8,0.2 -3.2,0.1 -3.2,0.1 z m 9,-16 c 0,0 1,5.6 -2.6,5.8 -3.5,0.2 -5.2,-5.1 -5.2,-5.1 0,0 0.8,10.3 5.8,9.7 5.5,-0.8 2,-10.4 2,-10.4 z M 61.9,34.2 c 4.1,-0.9 7.2,-5.7 8.2,-7.7 l 0.6,-1.2 0.4,1.3 c 0,0.1 0.4,1.5 0.4,3.4 v 0.6 c 1.4,0.1 2.4,-0.2 3.1,-0.9 0.9,-0.9 1.2,-2.7 0.8,-5.4 C 75.2,23 74.8,20.9 74.3,19.1 74.1,18.2 73.9,17.3 73.8,16.7 73,12.7 74,10.3 75,8.9 c 0.2,-0.2 0.3,-0.4 0.5,-0.6 -2.8,1 -5.2,2.4 -7.7,4.9 l 1.7,2 0.7,-0.7 c 0.7,2.5 0.2,4.8 0.2,4.8 -0.9,-1.4 -2,-2.5 -2,-2.5 L 68.9,16 67.3,14.2 67,14.1 c -1.9,2.6 -2.5,4.8 -2.5,4.8 l 1.4,1.2 0.8,0.7 L 67,20 c 1.5,2.7 0.1,5.3 0.1,5.3 C 66.9,24.4 65.9,23 65.9,23 l 0.4,-1.3 -2,-1.8 c -2.1,6.6 -4.9,8.7 -4.9,8.7 0,0 3,-0.5 4.7,-1.1 -0.1,0 -0.1,3.5 -2.2,6.7 z" />
		<path d="m 92.5,10.4 -4.8,0.2 c 0,0.6 -0.1,1.2 -0.3,1.7 0.5,2 0.1,3.1 0.1,3.1 -0.8,-1.9 -1.4,-2.4 -1.4,-2.4 -4.4,-2 -6.9,2.5 -6.7,5.4 0.2,2.4 1.1,5.5 1.8,10.5 0.6,4.2 -1.5,6 -4,6.4 H 77 c -0.4,0.1 -0.8,0.1 -1.3,0.1 h -0.1 c -0.2,0 -0.4,0 -0.6,-0.1 -1.9,-0.3 -6.1,-1 -10.4,-1.1 2.6,-1.5 4.6,-4.1 5.7,-5.9 0.1,0.5 0.1,1.1 0.1,1.8 v 1.6 h 0.5 c 2,0.2 3.4,-0.2 4.3,-1.2 1.1,-1.2 1.5,-3.2 1.1,-6.2 C 76.1,23 75.6,20.9 75.2,19 75,18.1 74.8,17.2 74.7,16.6 74,13 74.8,10.8 75.7,9.6 76.4,8.7 77.3,8 78.3,7.6 h 0.1 l 1.7,-5.1 h 0.5 l -1.1,4.9 c 0.3,0 0.5,-0.1 0.8,-0.1 l 1.4,-4.5 h 0.5 l -0.9,4.4 c 1.5,-0.2 3.1,-0.3 4.9,-0.5 0.3,0.1 0.6,0.5 0.9,0.9 L 91.8,6.2 92,6.7 87.5,8.4 c 0,0.1 0.1,0.2 0.1,0.3 L 92.2,8 92.3,8.5 87.6,9.4 v 0.3 l 4.9,0.2 z m -14,2.2 c 1,-0.7 2.6,-1.2 4.2,-1.1 0.4,0 0.7,-0.1 0.3,-0.3 -1.2,-0.6 -3.9,-0.4 -4.8,0.3 -1.5,1.1 -1.3,2.9 -1.2,3 0.2,-0.6 0.7,-1.3 1.5,-1.9 z" />
	</g>
</svg>
